<svg width="24" height="20" viewBox="0 0 24 20" fill="none" xmlns="http://www.w3.org/2000/svg">
<path d="M1.4714 8.71005C1.4714 8.71005 12.086 4.31967 15.7673 2.77372C17.1786 2.15538 21.9643 0.176548 21.9643 0.176548C21.9643 0.176548 24.1732 -0.689117 23.9891 1.4133C23.9277 2.27905 23.4369 5.30901 22.9461 8.58638C22.2098 13.2242 21.4121 18.2948 21.4121 18.2948C21.4121 18.2948 21.2894 19.717 20.2464 19.9644C19.2033 20.2117 17.4853 19.0987 17.1786 18.8513C16.9331 18.6658 12.5768 15.8831 10.9816 14.5227C10.5521 14.1517 10.0613 13.4097 11.0429 12.544C13.2518 10.5033 15.8901 7.96805 17.4853 6.3603C18.2216 5.61822 18.9579 3.8868 15.8901 5.98921C11.5338 9.01926 7.23888 11.8638 7.23888 11.8638C7.23888 11.8638 6.25715 12.4821 4.41649 11.9255C2.57575 11.3691 0.428278 10.627 0.428278 10.627C0.428278 10.627 -1.04418 9.69946 1.4714 8.71005Z" fill="white"/>
</svg>
