<svg xmlns="http://www.w3.org/2000/svg" width="40" height="40" viewBox="0 0 40 40" fill="none">
    <rect width="40" height="40" rx="20" fill="white" />
    <path fill-rule="evenodd" clip-rule="evenodd"
        d="M9.04622 19.7908C14.8771 17.2585 18.7588 15.5759 20.708 14.7595C26.2557 12.4438 27.4219 12.044 28.1716 12.0273C28.3382 12.0273 28.7047 12.0607 28.9546 12.2606C29.1545 12.4272 29.2045 12.6438 29.2378 12.8104C29.2711 12.9769 29.3044 13.3268 29.2711 13.5934C28.9713 16.7587 27.6718 24.4388 27.0054 27.9707C26.7222 29.4701 26.1724 29.9699 25.6393 30.0198C24.4731 30.1198 23.5902 29.2535 22.474 28.5205C20.708 27.3709 19.7251 26.6546 18.0092 25.5217C16.0266 24.2223 17.3094 23.5059 18.4423 22.3397C18.7422 22.0398 23.8567 17.3751 23.9567 16.9586C23.9733 16.9086 23.9733 16.7087 23.8567 16.6088C23.7401 16.5088 23.5735 16.5421 23.4402 16.5754C23.257 16.6088 20.4581 18.4747 15.0104 22.1565C14.2107 22.7062 13.4944 22.9728 12.8446 22.9561C12.1283 22.9395 10.7622 22.5563 9.72927 22.2231C8.47979 21.8233 7.48021 21.6067 7.56351 20.907C7.61349 20.5405 8.11328 20.1739 9.04622 19.7908Z"
        fill="#25A3E3" />
</svg>