<svg xmlns="http://www.w3.org/2000/svg" width="40" height="40" viewBox="0 0 40 40" fill="none">
    <rect width="40" height="40" rx="20" fill="white" />
    <path
        d="M21.0994 28.4608C12.6892 28.4608 7.89227 22.6858 7.69238 13.0762H11.9051C12.0435 20.1294 15.1492 23.117 17.6092 23.733V13.0762H21.5761V19.1591C24.0053 18.8973 26.5572 16.1254 27.4183 13.0762H31.3851C30.724 16.8338 27.9565 19.6058 25.9885 20.7453C27.9565 21.6693 31.1085 24.0872 32.3078 28.4608H27.9411C27.0032 25.5348 24.6664 23.271 21.5761 22.9629V28.4608H21.0994Z"
        fill="white" />
    <path
        d="M21.0994 28.4608C12.6892 28.4608 7.89227 22.6858 7.69238 13.0762H11.9051C12.0435 20.1294 15.1492 23.117 17.6092 23.733V13.0762H21.5761V19.1591C24.0053 18.8973 26.5572 16.1254 27.4183 13.0762H31.3851C30.724 16.8338 27.9565 19.6058 25.9885 20.7453C27.9565 21.6693 31.1085 24.0872 32.3078 28.4608H27.9411C27.0032 25.5348 24.6664 23.271 21.5761 22.9629V28.4608H21.0994Z"
        fill="#0077FF" />
</svg>