<svg xmlns="http://www.w3.org/2000/svg" width="40" height="40" viewBox="0 0 40 40" fill="none">
    <rect width="40" height="40" rx="20" fill="white" />
    <path
        d="M20 9.23047C14.0619 9.23047 9.23078 14.0616 9.23078 19.9997C9.23078 21.8539 9.70978 23.6772 10.6181 25.286L9.24811 30.1743C9.20316 30.3349 9.2467 30.5072 9.36282 30.6266C9.45225 30.7188 9.57399 30.7689 9.69901 30.7689C9.73647 30.7689 9.77439 30.7642 9.81138 30.7554L14.9132 29.4916C16.471 30.3279 18.2254 30.7689 20 30.7689C25.938 30.7689 30.7692 25.9378 30.7692 19.9997C30.7692 14.0616 25.938 9.23047 20 9.23047ZM25.4174 23.7998C25.187 24.4376 24.082 25.0196 23.551 25.0978C23.0743 25.1675 22.4713 25.1975 21.8092 24.9896C21.4079 24.8632 20.8929 24.6956 20.2332 24.4141C17.4599 23.2314 15.6488 20.474 15.5102 20.2919C15.372 20.1097 14.3813 18.8118 14.3813 17.4685C14.3813 16.1251 15.0953 15.4644 15.3491 15.191C15.6029 14.9176 15.9021 14.8492 16.0865 14.8492C16.271 14.8492 16.455 14.8515 16.6166 14.859C16.7865 14.8675 17.0146 14.7949 17.2388 15.3277C17.4692 15.8746 18.0222 17.218 18.0906 17.3552C18.1599 17.4919 18.2057 17.6515 18.114 17.8337C18.0222 18.0158 17.9763 18.1296 17.8377 18.2893C17.6991 18.4489 17.5474 18.6451 17.4229 18.7678C17.2843 18.904 17.1405 19.0515 17.3016 19.325C17.4627 19.5984 18.0175 20.4923 18.8397 21.2162C19.8956 22.1461 20.7866 22.4345 21.0628 22.5712C21.3391 22.7079 21.5006 22.685 21.6617 22.5028C21.8228 22.3202 22.3528 21.7055 22.5368 21.4325C22.7208 21.1595 22.9053 21.2044 23.1591 21.2958C23.4129 21.3866 24.7721 22.0468 25.0484 22.1835C25.3246 22.3202 25.5091 22.3886 25.5784 22.5024C25.6477 22.6157 25.6477 23.1626 25.4174 23.7998Z"
        fill="#008C18" />
</svg>