<svg width="20" height="20" viewBox="0 0 20 20" fill="none" xmlns="http://www.w3.org/2000/svg">
<path fill-rule="evenodd" clip-rule="evenodd" d="M1.66663 2.49935C1.66663 2.03911 2.03972 1.66602 2.49996 1.66602H8.14811C8.60835 1.66602 8.98144 2.03911 8.98144 2.49935V8.1475C8.98144 8.60773 8.60835 8.98083 8.14811 8.98083H2.49996C2.03972 8.98083 1.66663 8.60773 1.66663 8.1475V2.49935ZM10.1851 2.49935C10.1851 2.03911 10.5582 1.66602 11.0185 1.66602H16.6666C17.1269 1.66602 17.5 2.03911 17.5 2.49935V8.1475C17.5 8.60773 17.1269 8.98083 16.6666 8.98083H11.0185C10.5582 8.98083 10.1851 8.60773 10.1851 8.1475V2.49935ZM1.66663 11.0179C1.66663 10.5576 2.03972 10.1845 2.49996 10.1845H8.14811C8.60835 10.1845 8.98144 10.5576 8.98144 11.0179V16.666C8.98144 17.1263 8.60835 17.4993 8.14811 17.4993H2.49996C2.03972 17.4993 1.66663 17.1263 1.66663 16.666V11.0179ZM10.1851 11.0179C10.1851 10.5576 10.5582 10.1845 11.0185 10.1845H18.3333C18.7935 10.1845 19.1666 10.5576 19.1666 11.0179V18.3327C19.1666 18.7929 18.7935 19.166 18.3333 19.166H11.0185C10.5582 19.166 10.1851 18.7929 10.1851 18.3327V11.0179Z" fill="white"/>
</svg>
