<svg width="20" height="20" viewBox="0 0 20 20" fill="none" xmlns="http://www.w3.org/2000/svg">
<path d="M6.42289 1.73263C6.42289 1.73263 2.62935 1.3163 1.78634 2.56531C0.77473 8.8937 6.42289 14.0841 9.37342 15.8883C11.9024 17.2761 16.9605 19.3856 17.6349 17.7202C18.4779 15.6385 18.4779 14.2229 18.0564 13.3902C17.7192 12.7241 14.853 11.5861 13.5885 11.3085L11.9025 13.1404C9.87924 12.8074 7.2659 9.78191 6.42289 8.3941L8.10891 6.72873C8.10891 4.39722 6.98489 2.42653 6.42289 1.73263Z" fill="white"/>
<path d="M14.827 7.98156C14.6228 7.27784 14.2375 6.6404 13.7098 6.13331C13.182 5.62621 12.5304 5.26733 11.8204 5.09273M18.3333 6.49776C18.0424 5.22359 17.3611 4.07261 16.385 3.20613C15.4088 2.33966 14.1867 1.80113 12.8899 1.66602" stroke="white" stroke-width="1.66667" stroke-linecap="round" stroke-linejoin="round"/>
</svg>
