<svg xmlns="http://www.w3.org/2000/svg" width="24" height="24" viewBox="0 0 24 24" fill="none">
    <g opacity="0.5">
        <path fill-rule="evenodd" clip-rule="evenodd"
            d="M11.9997 1C5.92471 1 1 5.92471 1 11.9997C1 18.0746 5.92471 22.9993 11.9997 22.9993C18.0746 22.9993 22.9993 18.0746 22.9993 11.9997C22.9993 5.92471 18.0746 1 11.9997 1ZM12.9996 7.5C12.9996 6.94772 12.5519 6.5 11.9996 6.5C11.4473 6.5 10.9996 6.94772 10.9996 7.5V8C10.9996 8.55228 11.4473 9 11.9996 9C12.5519 9 12.9996 8.55228 12.9996 8V7.5ZM12.9996 12.4996C12.9996 11.9474 12.5519 11.4996 11.9996 11.4996C11.4473 11.4996 10.9996 11.9474 10.9996 12.4996V16.9995C10.9996 17.5518 11.4473 17.9995 11.9996 17.9995C12.5519 17.9995 12.9996 17.5518 12.9996 16.9995V12.4996Z"
            fill="#737D89" />
    </g>
</svg>