<svg xmlns="http://www.w3.org/2000/svg" width="22" height="22" viewBox="0 0 22 22" fill="none">
    <path
        d="M21.9999 9.90689L13.3922 14.7347L15.9839 16.3347L21.8539 13.1552C21.3519 15.6495 19.9962 17.8938 18.0175 19.5064C16.0388 21.119 13.5593 22.0002 11.0008 22.0002C8.44231 22.0002 5.96282 21.119 3.98413 19.5064C2.00544 17.8938 0.64976 15.6495 0.147705 13.1552L6.06452 16.2956L8.60752 14.7347L-0.00012207 9.90689C0.0820994 9.0639 0.263604 8.23342 0.540662 7.43252L10.9915 13.3636L21.4591 7.43066C21.7361 8.23156 21.9177 9.06204 21.9999 9.90503V9.90689Z"
        fill="#222222" />
    <path
        d="M11.0052 0L1.52368 5.33012H7.65943V8.80912L10.949 10.6733L14.3229 8.76075V5.33012H20.3782L20.4605 5.28361L11.0052 0Z"
        fill="#222222" />
</svg>