<svg width="20" height="20" viewBox="0 0 20 20" fill="none" xmlns="http://www.w3.org/2000/svg">
<path d="M19.1627 11.8128V15.4786H17.3299L17.3298 17.7697H13.6641L13.6641 15.4786H6.33261L6.33259 17.7697H2.66683L2.66686 15.4786H0.833984V11.8128C0.833984 11.7146 1.66798 8.25913 1.66732 8.14707H3.5833L4.99836 2.64844H13.6641H14.9984L16.4134 8.14707H18.3317C18.3368 8.40163 19.1627 11.6092 19.1627 11.8128Z" fill="#222222"/>
<path d="M16.4134 8.14707C13.9696 8.14707 6.5159 8.14707 3.5833 8.14707M16.4134 8.14707L14.9984 2.64844L13.6641 2.64844C13.6641 2.64844 6.46466 2.64844 4.99836 2.64844L3.5833 8.14707M16.4134 8.14707C18.8573 8.14707 18.3317 8.14707 18.3317 8.14707C18.3368 8.40163 19.1627 11.6092 19.1627 11.8128V15.4786H17.3299M3.5833 8.14707C0.886339 8.14707 1.66732 8.14707 1.66732 8.14707C1.66798 8.25913 0.833984 11.7146 0.833984 11.8128V15.4786H2.66686M2.66686 15.4786H6.33261M2.66686 15.4786L2.66683 17.7697H6.33259L6.33261 15.4786M6.33261 15.4786H13.6641M17.3299 15.4786H13.6641M17.3299 15.4786L17.3298 17.7697H13.6641L13.6641 15.4786" stroke="#222222" stroke-width="1.66667" stroke-linecap="round" stroke-linejoin="round"/>
<path d="M15.4154 7.33105H4.58203L5.27688 4.00473C5.35756 3.6185 5.69805 3.3418 6.09261 3.3418H13.9018C14.296 3.3418 14.6364 3.61813 14.7173 4.00402L15.4154 7.33105Z" fill="white"/>
<path fill-rule="evenodd" clip-rule="evenodd" d="M2.75 10.8978C2.75 10.4375 3.1231 10.0645 3.58333 10.0645H5.41621C5.87645 10.0645 6.24954 10.4375 6.24954 10.8978C6.24954 11.358 5.87645 11.7311 5.41621 11.7311H3.58333C3.1231 11.7311 2.75 11.358 2.75 10.8978ZM13.7473 10.8978C13.7473 10.4375 14.1204 10.0645 14.5806 10.0645H16.4135C16.8737 10.0645 17.2468 10.4375 17.2468 10.8978C17.2468 11.358 16.8737 11.7311 16.4135 11.7311H14.5806C14.1204 11.7311 13.7473 11.358 13.7473 10.8978Z" fill="white"/>
</svg>
