<svg width="20" height="20" viewBox="0 0 20 20" fill="none" xmlns="http://www.w3.org/2000/svg">
<path fill-rule="evenodd" clip-rule="evenodd" d="M3.33333 2.91797C1.54386 2.91797 0 4.29055 0 6.09505V7.08464C0 7.54487 0.373096 7.91797 0.833333 7.91797C1.98393 7.91797 2.91667 8.85071 2.91667 10.0013C2.91667 11.1519 1.98393 12.0846 0.833333 12.0846C0.373096 12.0846 0 12.4577 0 12.918V13.9076C0 15.7121 1.54386 17.0846 3.33333 17.0846H16.6667C18.4561 17.0846 20 15.7121 20 13.9076V6.09505C20 4.29055 18.4561 2.91797 16.6667 2.91797H3.33333ZM8.50592 9.34056L9.33926 8.50722C9.66469 8.18179 9.66469 7.65415 9.33926 7.32871C9.01382 7.00328 8.48618 7.00328 8.16074 7.32871L7.32741 8.16205C7.00197 8.48748 7.00197 9.01512 7.32741 9.34056C7.65285 9.66599 8.18048 9.66599 8.50592 9.34056ZM9.33926 12.6739L13.5059 8.50722C13.8314 8.18179 13.8314 7.65415 13.5059 7.32871C13.1805 7.00328 12.6528 7.00328 12.3274 7.32871L8.16074 11.4954C7.83531 11.8208 7.83531 12.3485 8.16074 12.6739C8.48618 12.9993 9.01382 12.9993 9.33926 12.6739ZM14.3393 11.8406C14.6647 11.5151 14.6647 10.9875 14.3393 10.662C14.0138 10.3366 13.4862 10.3366 13.1607 10.662L12.3274 11.4954C12.002 11.8208 12.002 12.3485 12.3274 12.6739C12.6528 12.9993 13.1805 12.9993 13.5059 12.6739L14.3393 11.8406Z" fill="black"/>
</svg>
