<svg width="16" height="17" viewBox="0 0 16 17" fill="none" xmlns="http://www.w3.org/2000/svg">
<g clip-path="url(#clip0_3017_116618)">
<path fill-rule="evenodd" clip-rule="evenodd" d="M8.00065 0.5C4.31875 0.5 1.33398 3.48477 1.33398 7.16667C1.33398 9.21524 2.36131 11.0883 3.52203 12.5616C4.69116 14.0455 6.05895 15.204 6.87662 15.8365C7.54257 16.3516 8.45873 16.3516 9.12468 15.8365C9.94235 15.204 11.3101 14.0455 12.4793 12.5616C13.64 11.0883 14.6673 9.21524 14.6673 7.16667C14.6673 3.48477 11.6825 0.5 8.00065 0.5ZM8.00083 5.16664C6.89626 5.16664 6.00083 6.06207 6.00083 7.16664C6.00083 8.27121 6.89626 9.16664 8.00083 9.16664C9.1054 9.16664 10.0008 8.27121 10.0008 7.16664C10.0008 6.06207 9.1054 5.16664 8.00083 5.16664Z" fill="#222222"/>
</g>
<defs>
<clipPath id="clip0_3017_116618">
<rect width="16" height="16" fill="white" transform="translate(0 0.5)"/>
</clipPath>
</defs>
</svg>
