<svg width="60" height="40" viewBox="0 0 60 40" fill="none" xmlns="http://www.w3.org/2000/svg">
<path d="M29.3743 20C29.3743 23.41 28.9956 26.378 28.2381 28.9039C27.4992 31.4118 26.4646 33.4867 25.1344 35.1286C23.8228 36.7704 22.2617 37.9973 20.4512 38.8092C18.6592 39.6031 16.7193 40 14.6317 40C12.5441 40 10.6043 39.6031 8.8123 38.8092C7.03875 37.9973 5.49614 36.7704 4.18446 35.1286C2.87277 33.4867 1.84744 31.4118 1.10847 28.9039C0.369488 26.378 0 23.41 0 20C0 16.5719 0.369488 13.604 1.10847 11.0961C1.84744 8.58818 2.87277 6.5133 4.18446 4.87145C5.49614 3.22959 7.03875 2.01173 8.8123 1.21786C10.6043 0.405954 12.5441 0 14.6317 0C16.7193 0 18.6592 0.405954 20.4512 1.21786C22.2617 2.01173 23.8228 3.22959 25.1344 4.87145C26.4646 6.5133 27.4992 8.58818 28.2381 11.0961C28.9956 13.604 29.3743 16.5719 29.3743 20ZM22.3079 20C22.3079 17.1673 22.0954 14.8218 21.6705 12.9635C21.2456 11.1051 20.6729 9.62562 19.9524 8.52503C19.2503 7.42445 18.4375 6.65764 17.5137 6.22462C16.59 5.77357 15.6294 5.54804 14.6317 5.54804C13.6526 5.54804 12.7012 5.77357 11.7774 6.22462C10.8722 6.65764 10.0686 7.42445 9.36653 8.52503C8.6645 9.62562 8.10103 11.1051 7.67612 12.9635C7.26968 14.8218 7.06646 17.1673 7.06646 20C7.06646 22.8327 7.26968 25.1782 7.67612 27.0365C8.10103 28.8949 8.6645 30.3744 9.36653 31.475C10.0686 32.5756 10.8722 33.3514 11.7774 33.8024C12.7012 34.2355 13.6526 34.452 14.6317 34.452C15.6294 34.452 16.59 34.2355 17.5137 33.8024C18.4375 33.3514 19.2503 32.5756 19.9524 31.475C20.6729 30.3744 21.2456 28.8949 21.6705 27.0365C22.0954 25.1782 22.3079 22.8327 22.3079 20Z" fill="#BF3535"/>
<path d="M60 34.5602V39.567H37.8307V34.5602H45.9502V11.7456C45.9502 10.8435 45.9779 9.9143 46.0333 8.95805L40.2693 13.6671C39.9368 13.9197 39.6042 14.0821 39.2717 14.1543C38.9576 14.2084 38.6528 14.2084 38.3572 14.1543C38.0801 14.1001 37.8307 14.0099 37.609 13.8836C37.3873 13.7393 37.221 13.5859 37.1102 13.4235L34.9487 10.5277L47.1695 0.378889H52.795V34.5602H60Z" fill="#BF3535"/>
</svg>
