<svg width="60" height="40" viewBox="0 0 60 40" fill="none" xmlns="http://www.w3.org/2000/svg">
<path d="M28.9333 20C28.9333 23.41 28.5603 26.378 27.8142 28.9039C27.0863 31.4118 26.0673 33.4867 24.7571 35.1286C23.4651 36.7704 21.9275 37.9973 20.1442 38.8092C18.379 39.6031 16.4683 40 14.4121 40C12.3558 40 10.4451 39.6031 8.68 38.8092C6.93308 37.9973 5.41363 36.7704 4.12164 35.1286C2.82964 33.4867 1.81971 31.4118 1.09182 28.9039C0.363941 26.378 0 23.41 0 20C0 16.5719 0.363941 13.604 1.09182 11.0961C1.81971 8.58818 2.82964 6.5133 4.12164 4.87145C5.41363 3.22959 6.93308 2.01173 8.68 1.21786C10.4451 0.405954 12.3558 0 14.4121 0C16.4683 0 18.379 0.405954 20.1442 1.21786C21.9275 2.01173 23.4651 3.22959 24.7571 4.87145C26.0673 6.5133 27.0863 8.58818 27.8142 11.0961C28.5603 13.604 28.9333 16.5719 28.9333 20ZM21.973 20C21.973 17.1673 21.7637 14.8218 21.3452 12.9635C20.9266 11.1051 20.3625 9.62562 19.6528 8.52503C18.9613 7.42445 18.1607 6.65764 17.2508 6.22462C16.341 5.77357 15.3947 5.54804 14.4121 5.54804C13.4476 5.54804 12.5105 5.77357 11.6006 6.22462C10.709 6.65764 9.9174 7.42445 9.22591 8.52503C8.53442 9.62562 7.97941 11.1051 7.56088 12.9635C7.16055 14.8218 6.96038 17.1673 6.96038 20C6.96038 22.8327 7.16055 25.1782 7.56088 27.0365C7.97941 28.8949 8.53442 30.3744 9.22591 31.475C9.9174 32.5756 10.709 33.3514 11.6006 33.8024C12.5105 34.2355 13.4476 34.452 14.4121 34.452C15.3947 34.452 16.341 34.2355 17.2508 33.8024C18.1607 33.3514 18.9613 32.5756 19.6528 31.475C20.3625 30.3744 20.9266 28.8949 21.3452 27.0365C21.7637 25.1782 21.973 22.8327 21.973 20Z" fill="#E7E7E8"/>
<path d="M57.6253 33.3424C58.3532 33.3424 58.9264 33.5498 59.3449 33.9648C59.7816 34.3618 60 34.894 60 35.5616V39.567H32.9228V37.3478C32.9228 36.8967 33.0137 36.4276 33.1957 35.9405C33.3959 35.4353 33.7052 34.9842 34.1238 34.5873L46.1065 22.6793C47.1074 21.6689 47.999 20.7037 48.7815 19.7835C49.5822 18.8633 50.2464 17.9522 50.7741 17.0501C51.3018 16.1479 51.7021 15.2368 51.9751 14.3166C52.2662 13.3784 52.4118 12.3951 52.4118 11.3667C52.4118 10.4285 52.2753 9.60758 52.0024 8.90392C51.7294 8.18223 51.3382 7.57781 50.8287 7.09066C50.3374 6.60352 49.7369 6.24267 49.0272 6.00812C48.3357 5.75553 47.5532 5.62923 46.6797 5.62923C45.8791 5.62923 45.133 5.7465 44.4415 5.98105C43.7682 6.19756 43.1677 6.5133 42.64 6.92828C42.1123 7.32521 41.6665 7.79432 41.3025 8.33559C40.9386 8.87686 40.6656 9.47226 40.4836 10.1218C40.1743 10.9517 39.774 11.502 39.2826 11.7727C38.7913 12.0433 38.0816 12.1064 37.1536 11.9621L33.6052 11.3396C33.8781 9.46324 34.4058 7.82138 35.1883 6.41407C35.9708 4.98872 36.9443 3.80695 38.1089 2.86874C39.2917 1.91249 40.6383 1.19982 42.1487 0.730716C43.6772 0.243572 45.315 0 47.0619 0C48.8816 0 50.5466 0.270636 52.057 0.811907C53.5673 1.33514 54.8593 2.08389 55.933 3.05818C57.0066 4.03247 57.8436 5.20523 58.4441 6.57645C59.0447 7.94768 59.3449 9.47226 59.3449 11.1502C59.3449 12.5936 59.1265 13.9287 58.6898 15.1556C58.2713 16.3825 57.6981 17.5553 56.9702 18.6739C56.2605 19.7925 55.4234 20.8751 54.459 21.9215C53.4945 22.968 52.4846 24.0325 51.4292 25.115L42.5308 34.1272C43.3861 33.8746 44.2322 33.6852 45.0693 33.5589C45.9246 33.4145 46.7343 33.3424 47.4986 33.3424H57.6253Z" fill="#E7E7E8"/>
</svg>
