<svg width="24" height="14" viewBox="0 0 24 14" fill="none" xmlns="http://www.w3.org/2000/svg">
<path fill-rule="evenodd" clip-rule="evenodd" d="M23.4474 0.939473C23.6162 0.386842 23.4474 0 22.6596 0H20.0335C19.3582 0 19.0581 0.35 18.8892 0.736842C18.8892 0.736842 17.5574 3.94211 15.6629 6.00526C15.0439 6.61316 14.7813 6.79737 14.4436 6.79737C14.2748 6.79737 14.0309 6.61316 14.0309 6.06053V0.939473C14.0309 0.276315 13.8434 0 13.2806 0H9.15387C8.7412 0 8.47859 0.313157 8.47859 0.589473C8.47859 1.21579 9.41648 1.36316 9.52903 3.09474V6.88947C9.52903 7.71842 9.37897 7.86579 9.04132 7.86579C8.1597 7.86579 5.98378 4.66053 4.70824 0.976316C4.44563 0.294737 4.20178 0 3.52649 0H0.900381C0.150063 0 0 0.35 0 0.736842C0 1.41842 0.881623 4.8079 4.1455 9.28421C6.32142 12.3421 9.37897 14 12.1551 14C13.8246 14 14.0309 13.6316 14.0309 13.0053V10.6842C14.0309 9.94737 14.181 9.8 14.725 9.8C15.1189 9.8 15.7754 9.98421 17.3323 11.4579C19.1143 13.2079 19.4145 14 20.4086 14H23.0347C23.7851 14 24.1602 13.6316 23.9351 12.9132C23.6913 12.1947 22.8472 11.1447 21.7217 9.89211C21.1027 9.17368 20.1835 8.41842 19.9209 8.03158C19.527 7.53421 19.6396 7.31316 19.9209 6.88947C19.9209 6.87105 23.1285 2.45 23.4474 0.939473Z" fill="#222222"/>
</svg>
