<svg width="20" height="20" viewBox="0 0 20 20" fill="none" xmlns="http://www.w3.org/2000/svg">
<path d="M19.1643 11.8128V15.4786H17.3315L17.3314 17.7697H13.6657L13.6657 15.4786H6.3342L6.33417 17.7697H2.66842L2.66845 15.4786H0.835571V11.8128C0.835571 11.7146 1.66956 8.25913 1.66891 8.14707H3.58489L4.99995 2.64844H13.6657H14.9999L16.415 8.14707H18.3333C18.3384 8.40163 19.1643 11.6092 19.1643 11.8128Z" fill="white"/>
<path d="M16.415 8.14707C13.9712 8.14707 6.51749 8.14707 3.58489 8.14707M16.415 8.14707L14.9999 2.64844L13.6657 2.64844C13.6657 2.64844 6.46625 2.64844 4.99995 2.64844L3.58489 8.14707M16.415 8.14707C18.8589 8.14707 18.3333 8.14707 18.3333 8.14707C18.3384 8.40163 19.1643 11.6092 19.1643 11.8128V15.4786H17.3315M3.58489 8.14707C0.887926 8.14707 1.66891 8.14707 1.66891 8.14707C1.66956 8.25913 0.835571 11.7146 0.835571 11.8128V15.4786H2.66845M2.66845 15.4786H6.3342M2.66845 15.4786L2.66842 17.7697H6.33417L6.3342 15.4786M6.3342 15.4786H13.6657M17.3315 15.4786H13.6657M17.3315 15.4786L17.3314 17.7697H13.6657L13.6657 15.4786" stroke="white" stroke-width="1.66667" stroke-linecap="round" stroke-linejoin="round"/>
<path d="M15.4166 7.33105H4.58325L5.2781 4.00473C5.35878 3.6185 5.69927 3.3418 6.09383 3.3418H13.903C14.2973 3.3418 14.6376 3.61813 14.7186 4.00402L15.4166 7.33105Z" fill="#111111"/>
<path fill-rule="evenodd" clip-rule="evenodd" d="M2.75146 10.8978C2.75146 10.4375 3.12456 10.0645 3.5848 10.0645H5.41767C5.87791 10.0645 6.25101 10.4375 6.25101 10.8978C6.25101 11.358 5.87791 11.7311 5.41767 11.7311H3.5848C3.12456 11.7311 2.75146 11.358 2.75146 10.8978ZM13.7487 10.8978C13.7487 10.4375 14.1218 10.0645 14.5821 10.0645H16.4149C16.8752 10.0645 17.2483 10.4375 17.2483 10.8978C17.2483 11.358 16.8752 11.7311 16.4149 11.7311H14.5821C14.1218 11.7311 13.7487 11.358 13.7487 10.8978Z" fill="#111111"/>
</svg>
