<svg width="16" height="16" viewBox="0 0 16 16" fill="none" xmlns="http://www.w3.org/2000/svg">
<g clip-path="url(#clip0_3026_116985)">
<path fill-rule="evenodd" clip-rule="evenodd" d="M7.99996 0.666016C3.94987 0.666016 0.666626 3.94926 0.666626 7.99935C0.666626 12.0494 3.94987 15.3327 7.99996 15.3327C12.05 15.3327 15.3333 12.0494 15.3333 7.99935C15.3333 3.94926 12.05 0.666016 7.99996 0.666016ZM6.35351 5.6458C6.15825 5.45053 5.84167 5.45053 5.64641 5.6458C5.45114 5.84106 5.45114 6.15764 5.64641 6.3529L7.29285 7.99935L5.64641 9.64579C5.45114 9.84106 5.45114 10.1576 5.64641 10.3529C5.84167 10.5482 6.15825 10.5482 6.35351 10.3529L7.99996 8.70646L9.64641 10.3529C9.84167 10.5482 10.1582 10.5482 10.3535 10.3529C10.5488 10.1576 10.5488 9.84106 10.3535 9.64579L8.70707 7.99935L10.3535 6.3529C10.5488 6.15764 10.5488 5.84106 10.3535 5.6458C10.1582 5.45053 9.84167 5.45053 9.64641 5.6458L7.99996 7.29224L6.35351 5.6458Z" fill="#BABCBF"/>
</g>
<defs>
<clipPath id="clip0_3026_116985">
<rect width="16" height="16" fill="white"/>
</clipPath>
</defs>
</svg>
