<svg width="20" height="20" viewBox="0 0 20 20" fill="none" xmlns="http://www.w3.org/2000/svg">
<path fill-rule="evenodd" clip-rule="evenodd" d="M16.6667 10.8343V18.3343C16.6667 18.7946 16.2936 19.1677 15.8334 19.1677H4.16671C3.70648 19.1677 3.33338 18.7946 3.33338 18.3343V10.8343C3.33338 10.3741 2.96029 10.001 2.50005 10.001H2.14238C1.38238 10.001 1.01904 9.06692 1.57928 8.55337L9.42482 1.36162C9.74844 1.06497 10.2467 1.07026 10.5639 1.37371L18.0826 8.56546C18.6256 9.08483 18.2533 10.001 17.5019 10.001C17.0417 10.001 16.6667 10.3741 16.6667 10.8343ZM6.66672 11.6677C6.20648 11.6677 5.83338 12.0408 5.83338 12.501C5.83338 12.9612 6.20648 13.3343 6.66672 13.3343H13.3334C13.7936 13.3343 14.1667 12.9612 14.1667 12.501C14.1667 12.0408 13.7936 11.6677 13.3334 11.6677H6.66672ZM6.66672 15.001C6.20648 15.001 5.83338 15.3741 5.83338 15.8343C5.83338 16.2946 6.20648 16.6677 6.66672 16.6677H13.3334C13.7936 16.6677 14.1667 16.2946 14.1667 15.8343C14.1667 15.3741 13.7936 15.001 13.3334 15.001H6.66672Z" fill="white"/>
</svg>
