<svg width="152" height="41" viewBox="0 0 152 41" fill="none" xmlns="http://www.w3.org/2000/svg">
<g clip-path="url(#clip0_1107_38548)">
<path d="M41 18.0127L24.9585 26.7905L29.7884 29.6995L40.728 23.9187C39.7923 28.4537 37.2658 32.5343 33.5783 35.4663C29.8907 38.3983 25.2699 40.0006 20.5017 40.0006C15.7336 40.0006 11.1128 38.3983 7.4252 35.4663C3.73764 32.5343 1.21114 28.4537 0.275496 23.9187L11.3023 29.6285L16.0415 26.7905L0 18.0127C0.153231 16.48 0.491489 14.97 1.00782 13.5138L20.4843 24.2975L39.9922 13.5105C40.5085 14.9666 40.8468 16.4766 41 18.0093V18.0127Z" fill="#222222"/>
<path d="M20.5099 0.000488281L2.83984 9.69162H14.2747V16.0171L20.4053 19.4064L26.6929 15.9291V9.69162H37.9777L38.1312 9.60705L20.5099 0.000488281Z" fill="#222222"/>
<path d="M64.0574 18.3821C64.9613 18.5848 65.7619 19.1089 66.3119 19.8578C66.8532 20.6292 67.1324 21.5554 67.1083 22.499C67.1238 23.1385 67.0035 23.7739 66.7555 24.3631C66.5075 24.9522 66.1374 25.4814 65.6699 25.9155C64.6436 26.8438 63.2969 27.3321 61.9173 27.2761H54.0039V11.1089H61.549C63.0454 11.1089 64.2067 11.5107 65.0329 12.3144C65.4263 12.6668 65.7407 13.0993 65.9552 13.5831C66.1697 14.0669 66.2794 14.591 66.2771 15.1207C66.2774 15.8343 66.0641 16.5314 65.6649 17.1216C65.2855 17.7116 64.7191 18.1558 64.0574 18.3821ZM60.7875 14.5454H57.9954V17.2866H60.6133C61.0565 17.3168 61.495 17.1794 61.8426 16.9015C61.9827 16.7766 62.0937 16.6222 62.1677 16.4493C62.2417 16.2763 62.2768 16.0892 62.2706 15.901C62.2727 15.7205 62.2375 15.5415 62.1673 15.3753C62.0971 15.2091 61.9933 15.0594 61.8625 14.9356C61.7176 14.8028 61.5481 14.7 61.3636 14.633C61.1792 14.5661 60.9834 14.5363 60.7875 14.5454ZM57.9954 23.7695H61.0463C61.5545 23.8066 62.0568 23.6413 62.4448 23.3093C62.6042 23.1661 62.7311 22.9902 62.817 22.7934C62.9028 22.5967 62.9456 22.3837 62.9425 22.1688C62.9456 21.9511 62.9029 21.7351 62.8171 21.5351C62.7313 21.3351 62.6045 21.1556 62.4448 21.0083C62.0854 20.6884 61.6154 20.5231 61.1359 20.5481H57.9954V23.7695Z" fill="#222222"/>
<path d="M77.0235 27.5418C75.9065 27.5677 74.7957 27.3661 73.7582 26.9491C72.7207 26.5322 71.7779 25.9085 70.9865 25.1157C69.4377 23.5264 68.5703 21.3903 68.5703 19.1656C68.5703 16.9409 69.4377 14.8048 70.9865 13.2154C72.6005 11.6561 74.7524 10.7852 76.9912 10.7852C79.23 10.7852 81.3819 11.6561 82.9959 13.2154C84.1768 14.3886 84.9816 15.89 85.3067 17.5265C85.6318 19.1631 85.4623 20.86 84.8201 22.399C84.1778 23.938 83.0922 25.2486 81.7028 26.1625C80.3134 27.0763 78.6838 27.5514 77.0235 27.5268V27.5418ZM77.0235 23.485C77.578 23.4954 78.1288 23.392 78.6422 23.1813C79.1556 22.9706 79.6209 22.6569 80.0097 22.2595C80.4125 21.8554 80.7285 21.3726 80.9383 20.8408C81.148 20.3091 81.247 19.7398 81.2291 19.1681C81.2352 18.5947 81.1265 18.0259 80.9093 17.4957C80.6921 16.9654 80.3709 16.4845 79.9649 16.0817C79.5739 15.6854 79.1088 15.3709 78.5963 15.1563C78.0837 14.9416 77.534 14.8311 76.9787 14.8311C76.4235 14.8311 75.8738 14.9416 75.3612 15.1563C74.8487 15.3709 74.3835 15.6854 73.9926 16.0817C73.2144 16.9161 72.7813 18.0169 72.7813 19.1606C72.7813 20.3042 73.2144 21.405 73.9926 22.2395C74.3812 22.644 74.8489 22.9635 75.3662 23.1778C75.8835 23.3921 76.4392 23.4967 76.9986 23.485H77.0235Z" fill="#222222"/>
<path d="M95.2715 27.5167C94.184 27.5477 93.1012 27.3601 92.0868 26.965C91.0723 26.5698 90.1466 25.9751 89.3638 25.2156C88.5749 24.4358 87.9563 23.4992 87.5476 22.4657C87.1388 21.4322 86.9489 20.3244 86.9898 19.2129C86.958 18.1043 87.1503 17.0008 87.5551 15.969C87.9599 14.9373 88.5687 13.9988 89.3448 13.2104C90.1208 12.4219 91.048 11.8 92.0701 11.3821C93.0923 10.9642 94.1881 10.7591 95.2914 10.7792C96.6654 10.7631 98.0256 11.0553 99.273 11.6346C100.427 12.1717 101.433 12.9839 102.204 14.0006L99.6114 16.7368C98.3639 15.4029 97.0118 14.7359 95.5552 14.7359C94.9771 14.7227 94.4024 14.8287 93.8666 15.0472C93.3308 15.2657 92.8451 15.5922 92.4396 16.0065C92.0288 16.4329 91.7071 16.9375 91.4934 17.4908C91.2797 18.0441 91.1784 18.6347 91.1954 19.228C91.1797 19.8113 91.2819 20.3917 91.4958 20.9343C91.7097 21.4768 92.0307 21.9701 92.4396 22.3844C92.845 22.7919 93.3283 23.1128 93.8603 23.3277C94.3923 23.5426 94.962 23.6471 95.5353 23.6349C96.3381 23.6279 97.1287 23.4362 97.8464 23.0746C98.5642 22.7131 99.19 22.1912 99.6761 21.549L102.379 24.1602C101.577 25.1851 100.556 26.0159 99.3924 26.5912C98.1109 27.2228 96.6986 27.5399 95.2715 27.5167Z" fill="#222222"/>
<path d="M107.237 27.2761H102.504L107.521 19.1125L102.922 11.1089H107.605L110.158 16.0611L112.951 11.1089H117.679L112.751 19.1125L117.569 27.2861H112.906L110.114 22.1788L107.237 27.2761Z" fill="#222222"/>
<path d="M126.008 27.5423C124.891 27.5679 123.78 27.3661 122.743 26.9492C121.705 26.5323 120.762 25.9088 119.971 25.1162C118.422 23.5268 117.555 21.3907 117.555 19.166C117.555 16.9414 118.422 14.8053 119.971 13.2159C121.586 11.6562 123.738 10.7852 125.978 10.7852C128.218 10.7852 130.37 11.6562 131.985 13.2159C133.168 14.3905 133.973 15.8942 134.298 17.5332C134.622 19.1722 134.45 20.8713 133.805 22.4113C133.16 23.9514 132.07 25.2618 130.677 26.1737C129.283 27.0855 127.65 27.557 125.988 27.5273L126.008 27.5423ZM126.008 23.4855C126.562 23.4964 127.113 23.3934 127.627 23.1826C128.14 22.9719 128.606 22.6579 128.994 22.2599C129.398 21.8561 129.714 21.3734 129.925 20.8417C130.135 20.31 130.235 19.7406 130.218 19.1685C130.223 18.5953 130.114 18.0269 129.897 17.4968C129.68 16.9667 129.359 16.4857 128.954 16.0822C128.563 15.6859 128.098 15.3714 127.586 15.1568C127.073 14.9421 126.523 14.8316 125.968 14.8316C125.413 14.8316 124.863 14.9421 124.351 15.1568C123.838 15.3714 123.373 15.6859 122.982 16.0822C122.204 16.9166 121.771 18.0174 121.771 19.161C121.771 20.3047 122.204 21.4055 122.982 22.2399C123.37 22.6454 123.837 22.9655 124.355 23.18C124.872 23.3944 125.428 23.4984 125.988 23.4855H126.008Z" fill="#222222"/>
<path d="M149.554 11.109V23.5095H151.321V30.5877H147.265V27.3012H139.197V30.5877H135.121V23.4845H136.614C137.736 21.3402 138.542 17.9671 139.033 13.365L139.297 11.084L149.554 11.109ZM140.815 23.5095H145.503V14.9207H142.82L142.666 15.9712C142.322 18.5358 141.702 21.0551 140.815 23.4845V23.5095Z" fill="#222222"/>
<path d="M55.2724 40.9997V39.7616H55.8492C56.0078 39.7616 56.1299 39.731 56.2153 39.6699C56.3008 39.6026 56.3679 39.4987 56.4167 39.358L56.4991 39.1379L54 34.4332H55.6569L57.1674 37.6155L58.5039 34.4332H60.0876L57.5518 40.0642C57.3749 40.4127 57.1704 40.6573 56.9385 40.7979C56.7127 40.9324 56.4106 40.9997 56.0322 40.9997H55.2724Z" fill="#222222"/>
<path d="M66.2524 40.9446V37.0653L64.8518 39.89H64.0279L62.6273 37.0653V40.9446H61.126V34.4332H62.7555L64.4398 37.8356L66.1334 34.4332H67.7537V40.9446H66.2524Z" fill="#222222"/>
<path d="M75.0986 34.4332V40.9446H73.5973V38.2758H71.0066V40.9446H69.5053V34.4332H71.0066V36.9552H73.5973V34.4332H75.0986Z" fill="#222222"/>
<path d="M78.4863 34.4332H80.1066L82.3402 40.9446H80.8023L80.2988 39.4864H78.2757L77.7814 40.9446H76.2435L78.4863 34.4332ZM80.0517 38.4501L79.2919 35.9464L78.5138 38.4501H80.0517Z" fill="#222222"/>
<path d="M83.3099 40.9446L84.8478 38.3951C84.4633 38.2483 84.1642 38.0068 83.9507 37.6706C83.7371 37.3343 83.6303 36.943 83.6303 36.4967C83.6303 36.0931 83.7218 35.7385 83.9049 35.4328C84.0941 35.121 84.3504 34.8764 84.6738 34.6991C85.0034 34.5218 85.3818 34.4332 85.809 34.4332H88.5552V40.9446H87.0539V38.5693H86.5962C86.5596 38.5693 86.5199 38.5693 86.4772 38.5693C86.4406 38.5693 86.404 38.5693 86.3674 38.5693L85.0034 40.9446H83.3099ZM86.0012 37.2945H87.0539V35.7079H86.0195C85.8669 35.7079 85.7235 35.7355 85.5893 35.7905C85.4611 35.8455 85.3573 35.9311 85.278 36.0473C85.1987 36.1573 85.159 36.3071 85.159 36.4967C85.159 36.6801 85.1956 36.8329 85.2689 36.9552C85.3421 37.0714 85.4428 37.157 85.5709 37.212C85.7052 37.267 85.8486 37.2945 86.0012 37.2945Z" fill="#222222"/>
<path d="M92.9477 40.9446V34.4332H95.7214C96.0327 34.4332 96.3164 34.4974 96.5728 34.6258C96.8352 34.748 97.061 34.9162 97.2502 35.1302C97.4394 35.338 97.5858 35.5734 97.6896 35.8363C97.7933 36.0992 97.8452 36.3683 97.8452 36.6434C97.8452 37.0164 97.7567 37.371 97.5797 37.7072C97.4089 38.0435 97.1678 38.3186 96.8565 38.5326C96.5514 38.7405 96.1883 38.8445 95.7672 38.8445H94.449V40.9446H92.9477ZM94.449 37.533H95.6757C95.7916 37.533 95.8984 37.4994 95.9961 37.4321C96.0937 37.3649 96.173 37.264 96.2341 37.1295C96.2951 36.995 96.3256 36.8299 96.3256 36.6342C96.3256 36.4325 96.289 36.2674 96.2158 36.139C96.1486 36.0045 96.0601 35.9067 95.9503 35.8455C95.8465 35.7844 95.7367 35.7538 95.6207 35.7538H94.449V37.533Z" fill="#222222"/>
<path d="M100.319 34.4332H101.94L104.173 40.9446H102.636L102.132 39.4864H100.109L99.6146 40.9446H98.0767L100.319 34.4332ZM101.885 38.4501L101.125 35.9464L100.347 38.4501H101.885Z" fill="#222222"/>
<path d="M104.682 37.6339C104.682 37.2365 104.756 36.8482 104.902 36.4691C105.049 36.084 105.262 35.7355 105.543 35.4236C105.824 35.1118 106.165 34.8642 106.568 34.6808C106.971 34.4913 107.429 34.3965 107.941 34.3965C108.552 34.3965 109.079 34.5279 109.525 34.7908C109.977 35.0537 110.312 35.3961 110.532 35.818L109.379 36.6251C109.281 36.3927 109.15 36.2124 108.985 36.084C108.826 35.9556 108.649 35.8669 108.454 35.818C108.265 35.763 108.082 35.7355 107.905 35.7355C107.618 35.7355 107.368 35.7935 107.154 35.9097C106.94 36.0198 106.763 36.1696 106.623 36.3591C106.483 36.5486 106.379 36.7596 106.312 36.9919C106.245 37.2242 106.211 37.4566 106.211 37.6889C106.211 37.9457 106.251 38.1933 106.33 38.4318C106.41 38.6702 106.522 38.8811 106.669 39.0646C106.821 39.248 107.005 39.3947 107.218 39.5048C107.432 39.6087 107.667 39.6607 107.923 39.6607C108.106 39.6607 108.292 39.6301 108.481 39.569C108.671 39.5078 108.845 39.4131 109.003 39.2847C109.168 39.1502 109.293 38.9759 109.379 38.7619L110.605 39.4864C110.477 39.8044 110.267 40.0764 109.974 40.3027C109.681 40.5289 109.348 40.7031 108.976 40.8254C108.61 40.9416 108.246 40.9997 107.886 40.9997C107.416 40.9997 106.983 40.9049 106.587 40.7154C106.196 40.5197 105.857 40.2629 105.57 39.945C105.29 39.6209 105.07 39.2602 104.911 38.8628C104.759 38.4593 104.682 38.0496 104.682 37.6339Z" fill="#222222"/>
<path d="M111.399 37.6339C111.399 37.2365 111.472 36.8482 111.619 36.4691C111.765 36.084 111.979 35.7355 112.259 35.4236C112.54 35.1118 112.882 34.8642 113.285 34.6808C113.688 34.4913 114.145 34.3965 114.658 34.3965C115.268 34.3965 115.796 34.5279 116.242 34.7908C116.693 35.0537 117.029 35.3961 117.249 35.818L116.095 36.6251C115.997 36.3927 115.866 36.2124 115.701 36.084C115.543 35.9556 115.366 35.8669 115.171 35.818C114.981 35.763 114.798 35.7355 114.621 35.7355C114.334 35.7355 114.084 35.7935 113.871 35.9097C113.657 36.0198 113.48 36.1696 113.34 36.3591C113.199 36.5486 113.096 36.7596 113.028 36.9919C112.961 37.2242 112.928 37.4566 112.928 37.6889C112.928 37.9457 112.967 38.1933 113.047 38.4318C113.126 38.6702 113.239 38.8811 113.385 39.0646C113.538 39.248 113.721 39.3947 113.935 39.5048C114.148 39.6087 114.383 39.6607 114.64 39.6607C114.823 39.6607 115.009 39.6301 115.198 39.569C115.387 39.5078 115.561 39.4131 115.72 39.2847C115.885 39.1502 116.01 38.9759 116.095 38.7619L117.322 39.4864C117.194 39.8044 116.983 40.0764 116.69 40.3027C116.397 40.5289 116.065 40.7031 115.692 40.8254C115.326 40.9416 114.963 40.9997 114.603 40.9997C114.133 40.9997 113.7 40.9049 113.303 40.7154C112.912 40.5197 112.574 40.2629 112.287 39.945C112.006 39.6209 111.787 39.2602 111.628 38.8628C111.475 38.4593 111.399 38.0496 111.399 37.6339Z" fill="#222222"/>
<path d="M118.58 40.9446V34.4332H121.354C121.665 34.4332 121.949 34.4974 122.205 34.6258C122.468 34.748 122.694 34.9162 122.883 35.1302C123.072 35.338 123.218 35.5734 123.322 35.8363C123.426 36.0992 123.478 36.3683 123.478 36.6434C123.478 37.0164 123.389 37.371 123.212 37.7072C123.041 38.0435 122.8 38.3186 122.489 38.5326C122.184 38.7405 121.821 38.8445 121.4 38.8445H120.082V40.9446H118.58ZM120.082 37.533H121.308C121.424 37.533 121.531 37.4994 121.629 37.4321C121.726 37.3649 121.806 37.264 121.867 37.1295C121.928 36.995 121.958 36.8299 121.958 36.6342C121.958 36.4325 121.922 36.2674 121.848 36.139C121.781 36.0045 121.693 35.9067 121.583 35.8455C121.479 35.7844 121.369 35.7538 121.253 35.7538H120.082V37.533Z" fill="#222222"/>
<path d="M127.634 40.9997C127.146 40.9997 126.704 40.9079 126.307 40.7245C125.916 40.535 125.578 40.2843 125.291 39.9725C125.01 39.6546 124.793 39.3 124.641 38.9087C124.488 38.5112 124.412 38.1016 124.412 37.6797C124.412 37.2456 124.491 36.8329 124.65 36.4416C124.815 36.0503 125.041 35.7018 125.327 35.3961C125.62 35.0843 125.965 34.8398 126.362 34.6624C126.758 34.4851 127.192 34.3965 127.662 34.3965C128.144 34.3965 128.58 34.4913 128.971 34.6808C129.367 34.8642 129.706 35.1149 129.987 35.4328C130.274 35.7507 130.493 36.1084 130.646 36.5058C130.799 36.8971 130.875 37.2976 130.875 37.7072C130.875 38.1413 130.795 38.554 130.637 38.9453C130.478 39.3366 130.252 39.6882 129.959 40C129.666 40.3057 129.322 40.5503 128.925 40.7337C128.534 40.911 128.104 40.9997 127.634 40.9997ZM125.941 37.6981C125.941 37.9487 125.977 38.1933 126.051 38.4318C126.124 38.6641 126.231 38.872 126.371 39.0554C126.517 39.2388 126.697 39.3855 126.911 39.4956C127.125 39.6057 127.369 39.6607 127.643 39.6607C127.93 39.6607 128.18 39.6057 128.394 39.4956C128.608 39.3794 128.785 39.2266 128.925 39.037C129.065 38.8475 129.169 38.6366 129.236 38.4042C129.309 38.1658 129.346 37.9243 129.346 37.6797C129.346 37.4291 129.309 37.1875 129.236 36.9552C129.163 36.7229 129.053 36.515 128.907 36.3316C128.76 36.142 128.58 35.9953 128.367 35.8914C128.153 35.7874 127.912 35.7355 127.643 35.7355C127.357 35.7355 127.106 35.7905 126.893 35.9005C126.685 36.0106 126.508 36.1604 126.362 36.3499C126.221 36.5333 126.115 36.7443 126.041 36.9827C125.974 37.2151 125.941 37.4535 125.941 37.6981Z" fill="#222222"/>
<path d="M135.871 40.9446V38.5143C135.834 38.5265 135.761 38.5571 135.651 38.606C135.541 38.6488 135.389 38.6916 135.193 38.7344C135.004 38.7711 134.775 38.7894 134.507 38.7894C133.726 38.7894 133.137 38.6182 132.74 38.2758C132.35 37.9273 132.154 37.374 132.154 36.6159V34.4332H133.619V36.4416C133.619 36.7779 133.707 37.0286 133.884 37.1937C134.061 37.3587 134.385 37.4413 134.855 37.4413C135.032 37.4413 135.209 37.4229 135.386 37.3863C135.569 37.3435 135.731 37.2915 135.871 37.2303V34.4332H137.336V40.9446H135.871Z" fill="#222222"/>
<path d="M139.115 40.9446V34.4332H140.607V36.9552H141.12L142.932 34.4332H144.598L142.273 37.5788L144.8 40.9446H142.978L141.074 38.3217H140.607V40.9446H139.115Z" fill="#222222"/>
<path d="M147.72 34.4332H149.34L151.574 40.9446H150.036L149.532 39.4864H147.509L147.015 40.9446H145.477L147.72 34.4332ZM149.285 38.4501L148.525 35.9464L147.747 38.4501H149.285Z" fill="#222222"/>
<path d="M54 6.35452V1.40618H56.9956V2.40978H55.0966V6.35452H54Z" fill="#222222"/>
<path d="M57.9848 6.35452V1.40618H60.0109C60.2382 1.40618 60.4455 1.45496 60.6327 1.55254C60.8244 1.64546 60.9893 1.77324 61.1275 1.93586C61.2657 2.09383 61.3727 2.27272 61.4485 2.47251C61.5243 2.6723 61.5622 2.87674 61.5622 3.08582C61.5622 3.36925 61.4975 3.63874 61.3682 3.89429C61.2434 4.14983 61.0673 4.35892 60.84 4.52154C60.6171 4.67951 60.3519 4.7585 60.0443 4.7585H59.0814V6.35452H57.9848ZM59.0814 3.76187H59.9774C60.0621 3.76187 60.1401 3.73631 60.2115 3.6852C60.2828 3.63409 60.3407 3.55743 60.3853 3.45521C60.4299 3.35299 60.4522 3.22754 60.4522 3.07886C60.4522 2.92553 60.4254 2.80008 60.3719 2.7025C60.3229 2.60028 60.2583 2.52594 60.178 2.47948C60.1023 2.43302 60.022 2.40978 59.9373 2.40978H59.0814V3.76187Z" fill="#222222"/>
<path d="M62.9466 6.39633V5.45545H63.3678C63.4837 5.45545 63.5729 5.43222 63.6353 5.38576C63.6977 5.33465 63.7468 5.25566 63.7824 5.14879L63.8426 4.98153L62.0172 1.40618H63.2274L64.3307 3.82459L65.307 1.40618H66.4637L64.6116 5.68544C64.4823 5.95029 64.3329 6.13614 64.1635 6.243C63.9986 6.34522 63.778 6.39633 63.5016 6.39633H62.9466Z" fill="#222222"/>
<path d="M67.2423 6.35452V1.40618H71.1941V6.35452H70.0975V2.40978H68.3389V6.35452H67.2423Z" fill="#222222"/>
<path d="M72.514 6.35452V1.40618H76.4658V6.35452H75.3692V2.40978H73.6106V6.35452H72.514Z" fill="#222222"/>
<path d="M78.9625 1.40618H80.146L81.7776 6.35452H80.6542L80.2865 5.24637H78.8087L78.4477 6.35452H77.3243L78.9625 1.40618ZM80.1059 4.45881L79.5509 2.55614L78.9826 4.45881H80.1059Z" fill="#222222"/>
<path d="M84.3589 6.35452V1.40618H85.4488V3.32279H85.8233L87.1472 1.40618H88.3642L86.6658 3.79671L88.5113 6.35452H87.1806L85.7898 4.36124H85.4488V6.35452H84.3589Z" fill="#222222"/>
<path d="M91.246 6.39633C90.8894 6.39633 90.5662 6.32664 90.2765 6.18725C89.9912 6.04321 89.7438 5.85271 89.5343 5.61575C89.3292 5.37414 89.171 5.10465 89.0595 4.80729C88.9481 4.50528 88.8923 4.19397 88.8923 3.87338C88.8923 3.54349 88.9503 3.22986 89.0662 2.9325C89.1866 2.63513 89.3515 2.37029 89.561 2.13797C89.775 1.90101 90.0268 1.71516 90.3166 1.58041C90.6063 1.44567 90.9228 1.3783 91.2661 1.3783C91.6182 1.3783 91.937 1.45032 92.2223 1.59435C92.512 1.73374 92.7594 1.92424 92.9645 2.16585C93.174 2.40746 93.3345 2.67927 93.4459 2.98128C93.5574 3.27865 93.6131 3.58298 93.6131 3.89429C93.6131 4.22417 93.5551 4.5378 93.4392 4.83517C93.3233 5.13253 93.1584 5.39969 92.9444 5.63666C92.7304 5.86897 92.4786 6.05483 92.1888 6.19422C91.9035 6.32896 91.5893 6.39633 91.246 6.39633ZM90.009 3.88732C90.009 4.07782 90.0358 4.26367 90.0892 4.44488C90.1427 4.62144 90.2208 4.77941 90.3233 4.9188C90.4303 5.05819 90.5618 5.1697 90.7178 5.25334C90.8738 5.33697 91.0521 5.37879 91.2527 5.37879C91.4622 5.37879 91.645 5.33697 91.801 5.25334C91.957 5.16506 92.0863 5.0489 92.1888 4.90486C92.2914 4.76083 92.3671 4.60053 92.4162 4.42397C92.4697 4.24276 92.4964 4.05923 92.4964 3.87338C92.4964 3.68288 92.4697 3.49935 92.4162 3.32279C92.3627 3.14623 92.2824 2.98825 92.1755 2.84886C92.0685 2.70483 91.937 2.59331 91.781 2.51433C91.6249 2.43534 91.4489 2.39585 91.2527 2.39585C91.0432 2.39585 90.8604 2.43766 90.7044 2.5213C90.5528 2.60493 90.4236 2.71876 90.3166 2.8628C90.2141 3.00219 90.1361 3.16249 90.0826 3.3437C90.0335 3.52026 90.009 3.70146 90.009 3.88732Z" fill="#222222"/>
<path d="M98.359 6.35452V3.40642L97.3359 5.55302H96.7341L95.7111 3.40642V6.35452H94.6145V1.40618H95.8047L97.035 3.99186L98.2721 1.40618H99.4556V6.35452H98.359Z" fill="#222222"/>
<path d="M100.755 6.35452V1.40618H104.707V6.35452H103.61V2.40978H101.852V6.35452H100.755Z" fill="#222222"/>
<path d="M107.204 1.40618H108.387L110.019 6.35452H108.895L108.528 5.24637H107.05L106.689 6.35452H105.565L107.204 1.40618ZM108.347 4.45881L107.792 2.55614L107.224 4.45881H108.347Z" fill="#222222"/>
<path d="M114.94 1.40618V6.35452H113.843V4.32639H111.951V6.35452H110.854V1.40618H111.951V3.32279H113.843V1.40618H114.94Z" fill="#222222"/>
<path d="M116.244 6.35452V1.40618H117.34V4.73062L119.387 1.40618H120.41V6.35452H119.313V3.05098L117.294 6.35452H116.244Z" fill="#222222"/>
<path d="M121.744 6.35452V1.40618H122.841V4.73062L124.887 1.40618H125.91V6.35452H124.813V3.05098L122.794 6.35452H121.744ZM123.83 1.14134C123.567 1.14134 123.333 1.09487 123.128 1.00195C122.928 0.904374 122.772 0.774277 122.66 0.611655C122.549 0.444388 122.493 0.256212 122.493 0.0471268H123.222C123.222 0.186516 123.273 0.311967 123.376 0.423479C123.478 0.530345 123.63 0.583777 123.83 0.583777C124.031 0.583777 124.182 0.532668 124.285 0.430449C124.392 0.32823 124.445 0.200456 124.445 0.0471268H125.174C125.174 0.256212 125.119 0.444388 125.007 0.611655C124.896 0.774277 124.737 0.904374 124.532 1.00195C124.332 1.09487 124.098 1.14134 123.83 1.14134Z" fill="#222222"/>
</g>
<defs>
<clipPath id="clip0_1107_38548">
<rect width="152" height="41" fill="white"/>
</clipPath>
</defs>
</svg>
