<svg width="18" height="19" viewBox="0 0 18 19" fill="none" xmlns="http://www.w3.org/2000/svg">
<g id="Fill">
<path id="Exclude" fill-rule="evenodd" clip-rule="evenodd" d="M15.6667 9.83237V17.3324C15.6667 17.7926 15.2936 18.1657 14.8334 18.1657H3.16671C2.70648 18.1657 2.33338 17.7926 2.33338 17.3324V9.83237C2.33338 9.37214 1.96029 8.99904 1.50005 8.99904H1.14238C0.382376 8.99904 0.0190375 8.06497 0.57928 7.55141L8.42482 0.359663C8.74844 0.0630146 9.2467 0.0683044 9.56395 0.371757L17.0826 7.56351C17.6256 8.08288 17.2533 8.99904 16.5019 8.99904C16.0417 8.99904 15.6667 9.37214 15.6667 9.83237ZM5.66672 10.6657C5.20648 10.6657 4.83338 11.0388 4.83338 11.499C4.83338 11.9593 5.20648 12.3324 5.66672 12.3324H12.3334C12.7936 12.3324 13.1667 11.9593 13.1667 11.499C13.1667 11.0388 12.7936 10.6657 12.3334 10.6657H5.66672ZM5.66672 13.999C5.20648 13.999 4.83338 14.3721 4.83338 14.8324C4.83338 15.2926 5.20648 15.6657 5.66672 15.6657H12.3334C12.7936 15.6657 13.1667 15.2926 13.1667 14.8324C13.1667 14.3721 12.7936 13.999 12.3334 13.999H5.66672Z" fill="#222222"/>
</g>
</svg>
