<svg width="19" height="19" viewBox="0 0 19 19" fill="none" xmlns="http://www.w3.org/2000/svg">
<g id="Fill">
<path id="Vector (Stroke)" fill-rule="evenodd" clip-rule="evenodd" d="M0.666626 1.5013C0.666626 1.04106 1.03972 0.667969 1.49996 0.667969H7.14811C7.60835 0.667969 7.98144 1.04106 7.98144 1.5013V7.14945C7.98144 7.60969 7.60835 7.98278 7.14811 7.98278H1.49996C1.03972 7.98278 0.666626 7.60969 0.666626 7.14945V1.5013ZM9.18515 1.5013C9.18515 1.04106 9.55824 0.667969 10.0185 0.667969H15.6666C16.1269 0.667969 16.5 1.04106 16.5 1.5013V7.14945C16.5 7.60969 16.1269 7.98278 15.6666 7.98278H10.0185C9.55824 7.98278 9.18515 7.60969 9.18515 7.14945V1.5013ZM0.666626 10.0198C0.666626 9.55958 1.03972 9.18649 1.49996 9.18649H7.14811C7.60835 9.18649 7.98144 9.55958 7.98144 10.0198V15.668C7.98144 16.1282 7.60835 16.5013 7.14811 16.5013H1.49996C1.03972 16.5013 0.666626 16.1282 0.666626 15.668V10.0198ZM9.18515 10.0198C9.18515 9.55958 9.55824 9.18649 10.0185 9.18649H17.3333C17.7935 9.18649 18.1666 9.55958 18.1666 10.0198V17.3346C18.1666 17.7949 17.7935 18.168 17.3333 18.168H10.0185C9.55824 18.168 9.18515 17.7949 9.18515 17.3346V10.0198Z" fill="#222222"/>
</g>
</svg>
