<svg xmlns="http://www.w3.org/2000/svg" width="14" height="13" viewBox="0 0 14 13" fill="none">
    <path fill-rule="evenodd" clip-rule="evenodd" d="M9.69646 7.61028C9.27783 8.95343 8.62056 9.7935 7.87453 10.5395C6.96266 11.4514 5.9452 12.0381 4.78116 12.3073C3.63236 12.573 2.40591 12.5144 1.09034 12.2427L0.111011 12.0404L0.515599 10.0817L1.49492 10.284C2.63474 10.5195 3.55242 10.5387 4.33053 10.3587C5.09341 10.1823 5.78565 9.79998 6.46032 9.12532C7.05683 8.52881 7.49339 7.95736 7.78705 7.01517C7.97431 6.41434 8.10993 5.64087 8.16678 4.59043L6.7101 6.04711L5.29588 4.6329L9.17142 0.757359L13.0515 4.63748L11.6373 6.0517L10.1698 4.58415C10.1103 5.8123 9.95138 6.79237 9.69646 7.61028Z" fill="#BABCBF"/>
  </svg>