<svg xmlns="http://www.w3.org/2000/svg" width="14" height="13" viewBox="0 0 14 13" fill="none">
    <path fill-rule="evenodd" clip-rule="evenodd" d="M4.30354 5.38972C4.72217 4.04657 5.37944 3.2065 6.12547 2.46047C7.03734 1.5486 8.0548 0.961881 9.21884 0.692681C10.3676 0.427004 11.5941 0.485581 12.9097 0.757332L13.889 0.959626L13.4844 2.91828L12.5051 2.71598C11.3653 2.48054 10.4476 2.4613 9.66947 2.64125C8.90659 2.81768 8.21435 3.20002 7.53968 3.87468C6.94317 4.47119 6.50661 5.04264 6.21295 5.98483C6.02569 6.58566 5.89007 7.35913 5.83322 8.40957L7.2899 6.95289L8.70412 8.3671L4.82858 12.2426L0.948455 8.36252L2.36267 6.9483L3.83021 8.41585C3.88973 7.1877 4.04862 6.20763 4.30354 5.38972Z" fill="#222222"/>
  </svg>