<svg xmlns="http://www.w3.org/2000/svg" width="17" height="18" viewBox="0 0 17 18" fill="none">
    <path fill-rule="evenodd" clip-rule="evenodd"
        d="M6.12504 0.791667C6.12504 0.354441 5.7706 0 5.33337 0C4.89615 0 4.54171 0.354441 4.54171 0.791667V1.58333H2.95837C2.29314 1.58333 1.70344 1.89572 1.29229 2.31276C0.882661 2.72825 0.583374 3.31527 0.583374 3.95833V15.0417C0.583374 15.6847 0.882661 16.2717 1.29229 16.6872C1.70344 17.1043 2.29314 17.4167 2.95837 17.4167H14.0417C14.7069 17.4167 15.2966 17.1043 15.7078 16.6872C16.1174 16.2717 16.4167 15.6847 16.4167 15.0417V3.95833C16.4167 2.79329 15.4549 1.58333 14.125 1.58333H12.4584V0.791667C12.4584 0.354441 12.1039 0 11.6667 0C11.2295 0 10.875 0.354441 10.875 0.791667V1.58333H6.12504V0.791667ZM2.95837 3.16667H4.54171V3.95833C4.54171 4.39556 4.89615 4.75 5.33337 4.75C5.7706 4.75 6.12504 4.39556 6.12504 3.95833V3.16667H10.875V3.95833C10.875 4.39556 11.2295 4.75 11.6667 4.75C12.1039 4.75 12.4584 4.39556 12.4584 3.95833V3.16667H14.125C14.452 3.16667 14.8334 3.53346 14.8334 3.95833V6.33333H2.16671V3.95833C2.16671 3.80645 2.24487 3.60179 2.4198 3.42436C2.59321 3.24847 2.79518 3.16667 2.95837 3.16667ZM4.54171 9.54167C4.12749 9.54167 3.79171 9.87745 3.79171 10.2917C3.79171 10.7059 4.12749 11.0417 4.54171 11.0417H5.33337C5.74759 11.0417 6.08337 10.7059 6.08337 10.2917C6.08337 9.87745 5.74759 9.54167 5.33337 9.54167H4.54171ZM8.10421 9.54167C7.68999 9.54167 7.35421 9.87745 7.35421 10.2917C7.35421 10.7059 7.68999 11.0417 8.10421 11.0417H8.89587C9.31009 11.0417 9.64587 10.7059 9.64587 10.2917C9.64587 9.87745 9.31009 9.54167 8.89587 9.54167H8.10421ZM11.6667 9.54167C11.2525 9.54167 10.9167 9.87745 10.9167 10.2917C10.9167 10.7059 11.2525 11.0417 11.6667 11.0417H12.4584C12.8726 11.0417 13.2084 10.7059 13.2084 10.2917C13.2084 9.87745 12.8726 9.54167 12.4584 9.54167H11.6667ZM4.54171 12.7083C4.12749 12.7083 3.79171 13.0441 3.79171 13.4583C3.79171 13.8725 4.12749 14.2083 4.54171 14.2083H8.89587C9.31009 14.2083 9.64587 13.8725 9.64587 13.4583C9.64587 13.0441 9.31009 12.7083 8.89587 12.7083H4.54171ZM11.6667 12.7083C11.2525 12.7083 10.9167 13.0441 10.9167 13.4583C10.9167 13.8725 11.2525 14.2083 11.6667 14.2083H12.4584C12.8726 14.2083 13.2084 13.8725 13.2084 13.4583C13.2084 13.0441 12.8726 12.7083 12.4584 12.7083H11.6667Z"
        fill="#222222" />
</svg>