<svg xmlns="http://www.w3.org/2000/svg" width="24" height="24" viewBox="0 0 24 24" fill="none">
    <g opacity="0.5">
        <path fill-rule="evenodd" clip-rule="evenodd"
            d="M1.23831 12.4345C1.08202 12.1613 1.08202 11.8387 1.23831 11.5655C2.19225 9.89791 5.99091 4 12.0013 4C18.0117 4 21.8103 9.89791 22.7643 11.5655C22.9206 11.8387 22.9206 12.1613 22.7643 12.4345C21.8103 14.1021 18.0117 20 12.0013 20C5.99091 20 2.19225 14.1021 1.23831 12.4345ZM8.2513 12C8.2513 9.92893 9.93023 8.25 12.0013 8.25C14.0724 8.25 15.7513 9.92893 15.7513 12C15.7513 14.0711 14.0724 15.75 12.0013 15.75C9.93023 15.75 8.2513 14.0711 8.2513 12ZM12.0013 9.75C10.7587 9.75 9.7513 10.7574 9.7513 12C9.7513 13.2426 10.7587 14.25 12.0013 14.25C13.2439 14.25 14.2513 13.2426 14.2513 12C14.2513 10.7574 13.2439 9.75 12.0013 9.75Z"
            fill="white" />
    </g>
</svg>