<svg width="16" height="17" viewBox="0 0 16 17" fill="none" xmlns="http://www.w3.org/2000/svg">
<path fill-rule="evenodd" clip-rule="evenodd" d="M7.99935 1.16602C3.94926 1.16602 0.666016 4.44926 0.666016 8.49935C0.666016 12.5494 3.94926 15.8327 7.99935 15.8327C12.0494 15.8327 15.3327 12.5494 15.3327 8.49935C15.3327 4.44926 12.0494 1.16602 7.99935 1.16602ZM8.59934 5.49919C8.59934 5.16782 8.33071 4.89919 7.99934 4.89919C7.66797 4.89919 7.39934 5.16782 7.39934 5.49919V8.49919C7.39934 8.69981 7.4996 8.88715 7.66652 8.99842L9.66652 10.3318C9.94224 10.5156 10.3148 10.4411 10.4986 10.1653C10.6824 9.88963 10.6079 9.51711 10.3322 9.3333L8.59934 8.17808V5.49919Z" fill="#222222"/>
</svg>
