<svg width="16" height="17" viewBox="0 0 16 17" fill="none" xmlns="http://www.w3.org/2000/svg">
<path d="M5.13899 1.88727C5.13899 1.88727 2.10416 1.55421 1.42976 2.55342C0.620468 7.61613 5.13899 11.7685 7.49942 13.2118C9.52264 14.322 13.5691 16.0096 14.1086 14.6773C14.783 13.012 14.783 11.8795 14.4458 11.2134C14.1761 10.6804 11.8831 9.77002 10.8715 9.54797L9.52265 11.0135C7.90408 10.7471 5.8134 8.3267 5.13899 7.21645L6.48781 5.88416C6.48781 4.01894 5.5886 2.4424 5.13899 1.88727Z" fill="#222222"/>
<path d="M11.8623 6.88642C11.699 6.32345 11.3907 5.8135 10.9685 5.40782C10.5463 5.00214 10.025 4.71504 9.45703 4.57536M14.6673 5.69938C14.4346 4.68004 13.8896 3.75926 13.1087 3.06608C12.3277 2.3729 11.35 1.94207 10.3126 1.83398" stroke="#222222" stroke-width="1.2" stroke-linecap="round" stroke-linejoin="round"/>
</svg>
