<svg width="60" height="40" viewBox="0 0 60 40" fill="none" xmlns="http://www.w3.org/2000/svg">
<path d="M28.9597 20C28.9597 23.41 28.5863 26.378 27.8396 28.9039C27.111 31.4118 26.091 33.4867 24.7797 35.1286C23.4865 36.7704 21.9474 37.9973 20.1625 38.8092C18.3958 39.6031 16.4833 40 14.4252 40C12.3671 40 10.4546 39.6031 8.68791 38.8092C6.9394 37.9973 5.41856 36.7704 4.12539 35.1286C2.83222 33.4867 1.82136 31.4118 1.09282 28.9039C0.364273 26.378 0 23.41 0 20C0 16.5719 0.364273 13.604 1.09282 11.0961C1.82136 8.58818 2.83222 6.5133 4.12539 4.87145C5.41856 3.22959 6.9394 2.01173 8.68791 1.21786C10.4546 0.405954 12.3671 0 14.4252 0C16.4833 0 18.3958 0.405954 20.1625 1.21786C21.9474 2.01173 23.4865 3.22959 24.7797 4.87145C26.091 6.5133 27.111 8.58818 27.8396 11.0961C28.5863 13.604 28.9597 16.5719 28.9597 20ZM21.993 20C21.993 17.1673 21.7835 14.8218 21.3646 12.9635C20.9457 11.1051 20.3811 9.62562 19.6707 8.52503C18.9786 7.42445 18.1772 6.65764 17.2665 6.22462C16.3558 5.77357 15.4087 5.54804 14.4252 5.54804C13.4599 5.54804 12.5219 5.77357 11.6112 6.22462C10.7187 6.65764 9.92643 7.42445 9.23432 8.52503C8.5422 9.62562 7.98668 11.1051 7.56777 12.9635C7.16707 14.8218 6.96672 17.1673 6.96672 20C6.96672 22.8327 7.16707 25.1782 7.56777 27.0365C7.98668 28.8949 8.5422 30.3744 9.23432 31.475C9.92643 32.5756 10.7187 33.3514 11.6112 33.8024C12.5219 34.2355 13.4599 34.452 14.4252 34.452C15.4087 34.452 16.3558 34.2355 17.2665 33.8024C18.1772 33.3514 18.9786 32.5756 19.6707 31.475C20.3811 30.3744 20.9457 28.8949 21.3646 27.0365C21.7835 25.1782 21.993 22.8327 21.993 20Z" fill="#E7E7E8"/>
<path d="M33.827 11.3396C34.1002 9.46324 34.6284 7.82138 35.4116 6.41407C36.1948 4.98872 37.1692 3.80695 38.3349 2.86874C39.5188 1.91249 40.8666 1.19982 42.3783 0.730716C43.9082 0.243572 45.5475 0 47.296 0C49.1174 0 50.7566 0.261614 52.2137 0.784842C53.689 1.29003 54.9457 2.0027 55.9839 2.92287C57.0221 3.82499 57.8144 4.88949 58.3608 6.11637C58.9254 7.34326 59.2077 8.66937 59.2077 10.0947C59.2077 11.3396 59.062 12.4402 58.7706 13.3965C58.4974 14.3347 58.0967 15.1556 57.5685 15.8593C57.0403 16.5629 56.3846 17.1583 55.6014 17.6455C54.8182 18.1326 53.9349 18.5386 52.9513 18.8633C55.3191 19.6031 57.0858 20.7307 58.2515 22.2463C59.4172 23.7618 60 25.6653 60 27.9567C60 29.9053 59.6357 31.6283 58.9072 33.1258C58.1786 34.6234 57.1951 35.8863 55.9566 36.9147C54.718 37.9251 53.2792 38.6919 51.6399 39.2152C50.0189 39.7384 48.2977 40 46.4764 40C44.4911 40 42.7608 39.7745 41.2855 39.3234C39.8102 38.8723 38.5261 38.2048 37.4333 37.3207C36.3405 36.4366 35.4116 35.3541 34.6466 34.0731C33.8816 32.7921 33.2259 31.3126 32.6795 29.6346L35.6575 28.4168C36.4407 28.092 37.1692 28.0108 37.8431 28.1732C38.5352 28.3175 39.0361 28.6784 39.3457 29.2558C39.6736 29.8872 40.0287 30.5097 40.4112 31.1231C40.8119 31.7366 41.2855 32.2869 41.8319 32.774C42.3783 33.2431 43.0158 33.631 43.7443 33.9378C44.4911 34.2264 45.3744 34.3708 46.3944 34.3708C47.5419 34.3708 48.5436 34.1903 49.3997 33.8295C50.2557 33.4506 50.966 32.9635 51.5307 32.3681C52.1135 31.7727 52.5415 31.1141 52.8147 30.3924C53.1061 29.6527 53.2519 28.9129 53.2519 28.1732C53.2519 27.235 53.1517 26.387 52.9513 25.6292C52.751 24.8534 52.3321 24.1949 51.6946 23.6536C51.0571 23.1123 50.1373 22.6883 48.9352 22.3816C47.7513 22.0749 46.1576 21.9215 44.1541 21.9215V17.1583C45.8116 17.1403 47.1867 16.9869 48.2795 16.6982C49.3723 16.4096 50.2375 16.0126 50.875 15.5074C51.5307 14.9842 51.986 14.3617 52.241 13.6401C52.496 12.9184 52.6235 12.1245 52.6235 11.2585C52.6235 9.41813 52.1044 8.01985 51.0662 7.0636C50.028 6.10735 48.6438 5.62923 46.9135 5.62923C46.1121 5.62923 45.3745 5.7465 44.7005 5.98105C44.0266 6.19756 43.4165 6.5133 42.8701 6.92828C42.3419 7.32521 41.8956 7.79432 41.5314 8.33559C41.1671 8.87686 40.8939 9.47226 40.7118 10.1218C40.4021 10.9517 39.9923 11.502 39.4823 11.7727C38.9906 12.0433 38.2893 12.1064 37.3787 11.9621L33.827 11.3396Z" fill="#E7E7E8"/>
</svg>
