<svg width="25" height="25" viewBox="0 0 25 25" fill="none" xmlns="http://www.w3.org/2000/svg">
<path fill-rule="evenodd" clip-rule="evenodd" d="M9.37492 1.04167C9.37492 0.46637 8.90855 0 8.33325 0C7.75796 0 7.29158 0.46637 7.29158 1.04167V2.08333H5.20825C4.33294 2.08333 3.55702 2.49437 3.01604 3.0431C2.47705 3.5898 2.08325 4.36219 2.08325 5.20833V19.7917C2.08325 20.6378 2.47705 21.4102 3.01604 21.9569C3.55702 22.5056 4.33294 22.9167 5.20825 22.9167H19.7916C20.6669 22.9167 21.4428 22.5056 21.9838 21.9569C22.5228 21.4102 22.9166 20.6378 22.9166 19.7917V5.20833C22.9166 3.67539 21.6511 2.08333 19.9012 2.08333H17.7083V1.04167C17.7083 0.46637 17.2419 0 16.6666 0C16.0913 0 15.6249 0.46637 15.6249 1.04167V2.08333H9.37492V1.04167ZM5.20825 4.16667H7.29158V5.20833C7.29158 5.78363 7.75796 6.25 8.33325 6.25C8.90855 6.25 9.37492 5.78363 9.37492 5.20833V4.16667H15.6249V5.20833C15.6249 5.78363 16.0913 6.25 16.6666 6.25C17.2419 6.25 17.7083 5.78363 17.7083 5.20833V4.16667H19.9012C20.3314 4.16667 20.8333 4.64929 20.8333 5.20833V8.33333H4.16659V5.20833C4.16659 5.00848 4.26944 4.7392 4.49961 4.50574C4.72778 4.2743 4.99353 4.16667 5.20825 4.16667ZM7.29158 12.7917C6.87737 12.7917 6.54158 13.1275 6.54158 13.5417C6.54158 13.9559 6.87737 14.2917 7.29158 14.2917H8.33325C8.74747 14.2917 9.08325 13.9559 9.08325 13.5417C9.08325 13.1275 8.74747 12.7917 8.33325 12.7917H7.29158ZM11.9791 12.7917C11.5649 12.7917 11.2291 13.1275 11.2291 13.5417C11.2291 13.9559 11.5649 14.2917 11.9791 14.2917H13.0208C13.435 14.2917 13.7708 13.9559 13.7708 13.5417C13.7708 13.1275 13.435 12.7917 13.0208 12.7917H11.9791ZM16.6666 12.7917C16.2524 12.7917 15.9166 13.1275 15.9166 13.5417C15.9166 13.9559 16.2524 14.2917 16.6666 14.2917H17.7083C18.1225 14.2917 18.4583 13.9559 18.4583 13.5417C18.4583 13.1275 18.1225 12.7917 17.7083 12.7917H16.6666ZM7.29158 16.9583C6.87737 16.9583 6.54158 17.2941 6.54158 17.7083C6.54158 18.1225 6.87737 18.4583 7.29158 18.4583H13.0208C13.435 18.4583 13.7708 18.1225 13.7708 17.7083C13.7708 17.2941 13.435 16.9583 13.0208 16.9583H7.29158ZM16.6666 16.9583C16.2524 16.9583 15.9166 17.2941 15.9166 17.7083C15.9166 18.1225 16.2524 18.4583 16.6666 18.4583H17.7083C18.1225 18.4583 18.4583 18.1225 18.4583 17.7083C18.4583 17.2941 18.1225 16.9583 17.7083 16.9583H16.6666Z" fill="#BABCBF"/>
</svg>
