<svg width="30" height="30" viewBox="0 0 30 30" fill="none" xmlns="http://www.w3.org/2000/svg">
<path d="M13.2697 1.59373C3.3146 3.29881 3.67202 3.22263 3.14468 3.68552C3.02749 3.79099 2.85757 4.02537 2.76968 4.20701L2.60561 4.54099L2.58804 15.2636C2.57046 27.2578 2.54116 26.3086 3.00405 26.7656C3.46108 27.2168 2.99233 27.1875 10.258 27.1875H16.7501L16.8966 27.0586C17.1076 26.8652 17.1251 26.6191 16.9318 26.4258C16.8146 26.3086 16.7384 26.3086 10.3048 26.3086H3.79507L3.62515 26.1387L3.45522 25.9687V15.3984V4.8281L3.58999 4.57029C3.88882 3.97263 4.64468 3.81443 5.2189 4.22458C5.31265 4.28904 5.74038 4.83396 6.17397 5.43748C6.60757 6.04099 7.0353 6.60349 7.12319 6.68552C7.60366 7.13083 8.08413 7.16599 8.90444 6.83201C9.44351 6.60935 9.72476 6.41013 9.72476 6.24021C9.72476 6.07615 9.58999 5.87107 9.44351 5.80076C9.30874 5.74216 9.20913 5.7656 8.66421 5.97654C8.08999 6.20505 8.02554 6.21677 7.87319 6.14646C7.76772 6.09373 7.40444 5.64841 6.87124 4.90427C6.40835 4.2656 6.03335 3.7324 6.03335 3.71482C6.03335 3.7031 6.08608 3.69138 6.14468 3.69138C6.20913 3.69138 7.01772 3.56248 7.94937 3.39841C13.4162 2.46091 19.6505 1.40623 19.6623 1.4238C19.674 1.43552 17.6701 2.26755 15.215 3.27537C12.7599 4.28904 10.6916 5.16794 10.6212 5.2324C10.4396 5.3906 10.4455 5.64841 10.633 5.83005C10.7091 5.91208 10.8205 5.97654 10.8732 5.97654C10.9259 5.97654 13.633 4.88083 16.8966 3.53904C20.1544 2.19724 22.8615 1.08396 22.9201 1.07224C22.9728 1.05466 23.0724 1.10154 23.1369 1.16599L23.2599 1.28904V7.2949C23.2599 13.2246 23.2599 13.3008 23.3771 13.4179C23.5529 13.5937 23.8634 13.5761 24.0158 13.3769L24.1388 13.2246L24.1271 7.12498L24.1095 1.02537L23.9806 0.790991C23.7111 0.292944 23.2248 -0.00588226 22.7091 0.00583649C22.5802 0.0116959 18.3322 0.72068 13.2697 1.59373Z" fill="white"/>
<path d="M6.73828 9.3457L20.2486 9.34571" stroke="white" stroke-linecap="round"/>
<path d="M6.73828 11.6976L20.2486 11.6976" stroke="white" stroke-linecap="round"/>
<path d="M6.73828 14.0414L20.2486 14.0414" stroke="white" stroke-linecap="round"/>
<path d="M6.73828 19.251L11.9531 19.251" stroke="white" stroke-linecap="round"/>
<path d="M6.73828 21.5918L10.6907 21.5918" stroke="white" stroke-linecap="round"/>
<path d="M16.8379 20.2792L16.293 20.8183L16.1407 20.6367C15.7598 20.1855 14.9864 20.0742 14.4297 20.3906C14.1719 20.5371 14.0489 20.6777 13.5333 21.4453C12.8712 22.4296 12.8184 22.5996 13.0879 22.8339C13.4044 23.1035 13.5391 23.0156 14.1251 22.1308C14.752 21.1933 14.8458 21.0937 15.1212 21.0937C15.379 21.0937 15.4786 21.1757 15.6719 21.5624C15.8243 21.8671 16.0118 22.0312 16.1934 22.0312C16.252 22.0312 16.5567 21.7851 16.879 21.4687L17.4532 20.9003L17.6114 21.0878C17.8633 21.3867 18.1915 21.5273 18.6309 21.5273C19.0411 21.5273 19.2989 21.4335 19.586 21.1581C19.9376 20.8359 19.9903 20.4902 19.7266 20.3027C19.5098 20.1503 19.2989 20.1972 19.0469 20.4492C18.6778 20.8242 18.3731 20.7539 18.1036 20.2206C17.7696 19.5585 17.5645 19.5703 16.8379 20.2792Z" fill="white"/>
<path d="M16.8379 20.2792L16.293 20.8183L16.1407 20.6367C15.7598 20.1855 14.9864 20.0742 14.4297 20.3906C14.1719 20.5371 14.0489 20.6777 13.5333 21.4453C12.8712 22.4296 12.8184 22.5996 13.0879 22.8339C13.4044 23.1035 13.5391 23.0156 14.1251 22.1308C14.752 21.1933 14.8458 21.0937 15.1212 21.0937C15.379 21.0937 15.4786 21.1757 15.6719 21.5624C15.8243 21.8671 16.0118 22.0312 16.1934 22.0312C16.252 22.0312 16.5567 21.7851 16.879 21.4687L17.4532 20.9003L17.6114 21.0878C17.8633 21.3867 18.1915 21.5273 18.6309 21.5273C19.0411 21.5273 19.2989 21.4335 19.586 21.1581C19.9376 20.8359 19.9903 20.4902 19.7266 20.3027C19.5098 20.1503 19.2989 20.1972 19.0469 20.4492C18.6778 20.8242 18.3731 20.7539 18.1036 20.2206C17.7696 19.5585 17.5645 19.5703 16.8379 20.2792Z" stroke="white"/>
<g clip-path="url(#clip0_1147_46500)">
<path d="M27.3855 17.146L22.2718 15.0947L17.1582 17.146V21.867C17.3713 22.9488 18.6923 25.5257 22.2718 27.178C25.8514 25.5257 27.1724 22.9488 27.3855 21.867V17.146Z" fill="#222222" stroke="white" stroke-linecap="round" stroke-linejoin="round"/>
<path d="M20.166 21.2671L21.6136 22.5748L24.3772 19.6978" stroke="white" stroke-linecap="round" stroke-linejoin="round"/>
</g>
<defs>
<clipPath id="clip0_1147_46500">
<rect width="13.6364" height="13.1818" fill="white" transform="translate(15.4531 14.5454)"/>
</clipPath>
</defs>
</svg>
