<svg width="30" height="30" viewBox="0 0 30 30" fill="none" xmlns="http://www.w3.org/2000/svg">
<g id="Fill">
<path id="Subtract" fill-rule="evenodd" clip-rule="evenodd" d="M15.0002 0.333328C6.90027 0.333328 0.333984 6.89961 0.333984 14.9995C0.333984 23.0995 6.90027 29.6657 15.0002 29.6657C23.1001 29.6657 29.6664 23.0995 29.6664 14.9995C29.6664 6.89961 23.1001 0.333328 15.0002 0.333328ZM16.5002 9V7.49999H13.5002V9V14.9998V16.4998H16.5002V14.9998V9ZM16.5002 20.9993C16.5002 20.1709 15.8286 19.4993 15.0002 19.4993C14.1717 19.4993 13.5002 20.1709 13.5002 20.9993V21.666C13.5002 22.4944 14.1717 23.166 15.0002 23.166C15.8286 23.166 16.5002 22.4944 16.5002 21.666V20.9993Z" fill="#BF3535"/>
</g>
</svg>
