<svg width="24" height="24" viewBox="0 0 24 24" fill="none" xmlns="http://www.w3.org/2000/svg">
<path fill-rule="evenodd" clip-rule="evenodd" d="M11.9961 0C6.47325 0 1.99609 4.47715 1.99609 10C1.99609 13.0729 3.53708 15.8825 5.27816 18.0924C7.03186 20.3183 9.08355 22.056 10.31 23.0047C11.309 23.7774 12.6832 23.7774 13.6821 23.0047C14.9086 22.056 16.9603 20.3183 18.714 18.0924C20.4551 15.8825 21.9961 13.0729 21.9961 10C21.9961 4.47715 17.5189 0 11.9961 0ZM11.9957 7C10.3388 7 8.99569 8.34315 8.99569 10C8.99569 11.6569 10.3388 13 11.9957 13C13.6525 13 14.9957 11.6569 14.9957 10C14.9957 8.34315 13.6525 7 11.9957 7Z" fill="#222222"/>
</svg>
