<svg width="20" height="20" viewBox="0 0 20 20" fill="none" xmlns="http://www.w3.org/2000/svg">
<g id="Phone 3">
<path id="Vector" d="M5.58976 2.56661C5.58976 2.56661 1.79622 2.15028 0.953211 3.3993C-0.0584001 9.72769 5.58976 14.9181 8.54029 16.7223C11.0693 18.1101 16.1274 20.2195 16.8018 18.5542C17.6448 16.4725 17.6448 15.0569 17.2233 14.2242C16.8861 13.5581 14.0198 12.42 12.7553 12.1425L11.0693 13.9744C9.04611 13.6413 6.43277 10.6159 5.58976 9.22809L7.27578 7.56272C7.27578 5.2312 6.15176 3.26051 5.58976 2.56661Z" fill="white"/>
<path id="Vector_2" d="M17.5 2.5L12.5 7.5M17.5 2.5V6.66667M17.5 2.5H13.3333" stroke="white" stroke-width="2" stroke-linecap="round" stroke-linejoin="round"/>
</g>
</svg>
