<svg xmlns="http://www.w3.org/2000/svg" width="20" height="20" viewBox="0 0 20 20" fill="none">
    <g id="Phone 5" clip-path="url(#clip0_6299_59669)">
        <g id="Fill">
            <path id="Rectangle"
                d="M13.6396 1.75012L3.75 5.0013H15.8333V3.24646C15.8333 2.16987 14.7188 1.40967 13.6396 1.75012Z"
                stroke="black" stroke-width="1.66667" stroke-linecap="round" stroke-linejoin="round" />
            <path id="Subtract" fill-rule="evenodd" clip-rule="evenodd"
                d="M4.16536 4.16797C2.32442 4.16797 0.832031 5.66035 0.832031 7.5013V15.8346C0.832031 17.6756 2.32441 19.168 4.16536 19.168H15.832C17.673 19.168 19.1654 17.6756 19.1654 15.8346V15.418H14.582C12.511 15.418 10.832 13.739 10.832 11.668C10.832 9.5969 12.511 7.91797 14.582 7.91797H19.1654V7.5013C19.1654 5.66035 17.673 4.16797 15.832 4.16797H4.16536ZM19.1654 9.58464H14.582C13.4314 9.58464 12.4987 10.5174 12.4987 11.668C12.4987 12.8186 13.4314 13.7513 14.582 13.7513H19.1654V11.668V9.58464ZM14.9987 10.8346C14.5385 10.8346 14.1654 11.2077 14.1654 11.668C14.1654 12.1282 14.5385 12.5013 14.9987 12.5013H15.832C16.2923 12.5013 16.6654 12.1282 16.6654 11.668C16.6654 11.2077 16.2923 10.8346 15.832 10.8346H14.9987Z"
                fill="black" />
        </g>
    </g>
    <defs>
        <clipPath id="clip0_6299_59669">
            <rect width="20" height="20" fill="white" />
        </clipPath>
    </defs>
</svg>