<svg width="20" height="20" viewBox="0 0 20 20" fill="none" xmlns="http://www.w3.org/2000/svg">
<g clip-path="url(#clip0_3365_124803)">
<path fill-rule="evenodd" clip-rule="evenodd" d="M6.5487 0.832031C6.32768 0.832031 6.11572 0.919829 5.95944 1.07611L1.07611 5.95944C0.919829 6.11572 0.832031 6.32768 0.832031 6.5487V13.4487C0.832031 13.6697 0.919829 13.8817 1.07611 14.038L5.95944 18.9213C6.11572 19.0776 6.32768 19.1654 6.5487 19.1654H13.4487C13.6697 19.1654 13.8817 19.0776 14.038 18.9213L18.9213 14.038C19.0776 13.8817 19.1654 13.6697 19.1654 13.4487V6.5487C19.1654 6.32768 19.0776 6.11572 18.9213 5.95944L14.038 1.07611C13.8817 0.919829 13.6697 0.832031 13.4487 0.832031H6.5487ZM10.832 6.2487C10.832 5.78846 10.4589 5.41536 9.9987 5.41536C9.53846 5.41536 9.16537 5.78846 9.16537 6.2487V9.99857C9.16537 10.4588 9.53846 10.8319 9.9987 10.8319C10.4589 10.8319 10.832 10.4588 10.832 9.99857V6.2487ZM10.832 13.7483C10.832 13.288 10.4589 12.9149 9.9987 12.9149C9.53846 12.9149 9.16537 13.288 9.16537 13.7483V14.1649C9.16537 14.6252 9.53846 14.9983 9.9987 14.9983C10.4589 14.9983 10.832 14.6252 10.832 14.1649V13.7483Z" fill="black"/>
</g>
<defs>
<clipPath id="clip0_3365_124803">
<rect width="20" height="20" fill="white"/>
</clipPath>
</defs>
</svg>
