<svg width="26" height="27" viewBox="0 0 26 27" fill="none" xmlns="http://www.w3.org/2000/svg">
<g id="Fill">
<path id="Subtract" fill-rule="evenodd" clip-rule="evenodd" d="M12.9993 0.667969C5.9117 0.667969 0.166016 6.41365 0.166016 13.5013C0.166016 20.589 5.9117 26.3346 12.9993 26.3346C20.087 26.3346 25.8327 20.589 25.8327 13.5013C25.8327 6.41365 20.087 0.667969 12.9993 0.667969ZM10.2065 9.2942C9.81593 8.90367 9.18277 8.90367 8.79224 9.2942C8.40172 9.68472 8.40172 10.3179 8.79224 10.7084L11.5851 13.5013L8.79224 16.2942C8.40172 16.6847 8.40172 17.3179 8.79224 17.7084C9.18277 18.0989 9.81593 18.0989 10.2065 17.7084L12.9993 14.9155L15.7922 17.7084C16.1828 18.0989 16.8159 18.0989 17.2065 17.7084C17.597 17.3179 17.597 16.6847 17.2065 16.2942L14.4136 13.5013L17.2065 10.7084C17.597 10.3179 17.597 9.68472 17.2065 9.2942C16.8159 8.90367 16.1828 8.90367 15.7922 9.2942L12.9993 12.0871L10.2065 9.2942Z" fill="#BF3535"/>
</g>
</svg>
