<svg width="26" height="27" viewBox="0 0 26 27" fill="none" xmlns="http://www.w3.org/2000/svg">
<g id="Fill">
<path id="Subtract" fill-rule="evenodd" clip-rule="evenodd" d="M12.9989 0.667969C5.91151 0.667969 0.166016 6.41347 0.166016 13.5009C0.166016 20.5883 5.91151 26.3338 12.9989 26.3338C20.0864 26.3338 25.8319 20.5883 25.8319 13.5009C25.8319 6.41347 20.0864 0.667969 12.9989 0.667969ZM13.9989 8.2513V7.2513H11.9989V8.2513V13.5011V14.5011H13.9989V13.5011V8.2513ZM13.9989 18.7507C13.9989 18.1984 13.5512 17.7507 12.9989 17.7507C12.4466 17.7507 11.9989 18.1984 11.9989 18.7507V19.334C11.9989 19.8863 12.4466 20.334 12.9989 20.334C13.5512 20.334 13.9989 19.8863 13.9989 19.334V18.7507Z" fill="#BF3535"/>
</g>
</svg>
