<svg width="26" height="27" viewBox="0 0 26 27" fill="none" xmlns="http://www.w3.org/2000/svg">
<g id="Fill">
<path id="Subtract" fill-rule="evenodd" clip-rule="evenodd" d="M12.9993 0.667969C5.9117 0.667969 0.166016 6.41365 0.166016 13.5013C0.166016 20.589 5.9117 26.3346 12.9993 26.3346C20.087 26.3346 25.8327 20.589 25.8327 13.5013C25.8327 6.41365 20.087 0.667969 12.9993 0.667969ZM13.9993 8.2513C13.9993 7.69902 13.5516 7.2513 12.9993 7.2513C12.4471 7.2513 11.9993 7.69902 11.9993 8.2513V13.5013C11.9993 13.8357 12.1664 14.1479 12.4446 14.3334L15.9446 16.6667C16.4042 16.973 17.025 16.8489 17.3314 16.3893C17.6378 15.9298 17.5136 15.3089 17.054 15.0026L13.9993 12.9661V8.2513Z" fill="#E19F52"/>
</g>
</svg>
